<mxfile host="65bd71144e">
    <diagram id="1EFOuv5v4WgEjUSWXXve" name="第 1 页">
        <mxGraphModel dx="2135" dy="1987" grid="1" gridSize="10" guides="1" tooltips="1" connect="1" arrows="1" fold="1" page="1" pageScale="1" pageWidth="827" pageHeight="1169" math="0" shadow="0">
            <root>
                <mxCell id="0"/>
                <mxCell id="1" parent="0"/>
                <mxCell id="22" value="&lt;p style=&quot;line-height: 0&quot;&gt;&lt;font color=&quot;#ff66b3&quot;&gt;http_conn.cpp&lt;/font&gt;&lt;/p&gt;" style="rounded=0;whiteSpace=wrap;html=1;fontSize=15;labelPosition=center;verticalLabelPosition=top;align=center;verticalAlign=bottom;dashed=1;strokeColor=#FF66B3;" parent="1" vertex="1">
                    <mxGeometry x="-290" y="400" width="1074" height="340" as="geometry"/>
                </mxCell>
                <mxCell id="14" value="&lt;p style=&quot;line-height: 0&quot;&gt;&lt;font color=&quot;#ffff66&quot;&gt;threadpool.h&lt;/font&gt;&lt;/p&gt;" style="rounded=0;whiteSpace=wrap;html=1;fontSize=15;labelPosition=center;verticalLabelPosition=top;align=center;verticalAlign=bottom;dashed=1;strokeColor=#FFFF66;" parent="1" vertex="1">
                    <mxGeometry x="-230" y="150" width="1010" height="220" as="geometry"/>
                </mxCell>
                <mxCell id="13" value="&lt;p&gt;&lt;font color=&quot;#33ffff&quot; style=&quot;line-height: 0&quot;&gt;webserver.cpp&lt;/font&gt;&lt;/p&gt;" style="rounded=0;whiteSpace=wrap;html=1;fontSize=15;labelPosition=center;verticalLabelPosition=top;align=center;verticalAlign=bottom;dashed=1;strokeColor=#33FFFF;" parent="1" vertex="1">
                    <mxGeometry x="-150" y="-80" width="934" height="200" as="geometry"/>
                </mxCell>
                <mxCell id="40" value="" style="edgeStyle=none;html=1;" edge="1" parent="1" source="2" target="39">
                    <mxGeometry relative="1" as="geometry"/>
                </mxCell>
                <mxCell id="47" value="" style="edgeStyle=none;html=1;" edge="1" parent="1" source="2" target="46">
                    <mxGeometry relative="1" as="geometry"/>
                </mxCell>
                <mxCell id="2" value="&lt;font style=&quot;font-size: 22px;&quot;&gt;main()&lt;/font&gt;" style="rounded=1;whiteSpace=wrap;html=1;fontSize=22;arcSize=50;fillColor=#6d8764;fontColor=#ffffff;strokeColor=#3A5431;fontStyle=1" parent="1" vertex="1">
                    <mxGeometry x="149.5" y="-50" width="120" height="60" as="geometry"/>
                </mxCell>
                <mxCell id="6" value="" style="edgeStyle=none;html=1;fontSize=15;" parent="1" source="3" target="5" edge="1">
                    <mxGeometry relative="1" as="geometry"/>
                </mxCell>
                <mxCell id="3" value="&lt;font style=&quot;font-size: 15px&quot;&gt;pool-&amp;gt;append()&lt;/font&gt;" style="whiteSpace=wrap;html=1;rounded=1;fontSize=15;" parent="1" vertex="1">
                    <mxGeometry x="615" y="-50" width="120" height="60" as="geometry"/>
                </mxCell>
                <mxCell id="10" value="" style="edgeStyle=none;html=1;fontSize=15;" parent="1" source="5" target="9" edge="1">
                    <mxGeometry relative="1" as="geometry"/>
                </mxCell>
                <mxCell id="5" value="append()" style="whiteSpace=wrap;html=1;fontSize=15;rounded=1;" parent="1" vertex="1">
                    <mxGeometry x="615" y="180" width="120" height="60" as="geometry"/>
                </mxCell>
                <mxCell id="9" value="myqueue.push_back()" style="whiteSpace=wrap;html=1;fontSize=15;rounded=1;" parent="1" vertex="1">
                    <mxGeometry x="575" y="280" width="200" height="60" as="geometry"/>
                </mxCell>
                <mxCell id="21" value="" style="edgeStyle=none;html=1;fontSize=15;fontColor=#FFFF66;" parent="1" source="11" target="20" edge="1">
                    <mxGeometry relative="1" as="geometry"/>
                </mxCell>
                <mxCell id="11" value="run()&lt;br&gt;myqueue.front()&amp;nbsp; &amp;nbsp; &amp;nbsp;process()" style="whiteSpace=wrap;html=1;fontSize=15;rounded=1;" parent="1" vertex="1">
                    <mxGeometry x="-200.5" y="270" width="230" height="60" as="geometry"/>
                </mxCell>
                <mxCell id="28" value="" style="edgeStyle=none;html=1;fontSize=15;fontColor=#FF66B3;" parent="1" source="20" target="27" edge="1">
                    <mxGeometry relative="1" as="geometry"/>
                </mxCell>
                <mxCell id="30" value="" style="edgeStyle=none;html=1;fontSize=15;fontColor=#FF66B3;" parent="1" source="20" target="29" edge="1">
                    <mxGeometry relative="1" as="geometry"/>
                </mxCell>
                <mxCell id="20" value="process()" style="whiteSpace=wrap;html=1;fontSize=15;rounded=1;" parent="1" vertex="1">
                    <mxGeometry x="-255.5" y="530" width="120" height="60" as="geometry"/>
                </mxCell>
                <mxCell id="32" value="" style="edgeStyle=none;html=1;fontSize=15;fontColor=#FF66B3;" parent="1" source="27" target="31" edge="1">
                    <mxGeometry relative="1" as="geometry"/>
                </mxCell>
                <mxCell id="27" value="process_read()" style="whiteSpace=wrap;html=1;fontSize=15;rounded=1;" parent="1" vertex="1">
                    <mxGeometry x="-64.5" y="470" width="120" height="60" as="geometry"/>
                </mxCell>
                <mxCell id="36" value="" style="edgeStyle=none;html=1;fontSize=15;fontColor=#FF66B3;" parent="1" source="29" target="35" edge="1">
                    <mxGeometry relative="1" as="geometry"/>
                </mxCell>
                <mxCell id="29" value="process_write()" style="whiteSpace=wrap;html=1;fontSize=15;rounded=1;" parent="1" vertex="1">
                    <mxGeometry x="-64.5" y="610" width="120" height="60" as="geometry"/>
                </mxCell>
                <mxCell id="34" value="" style="edgeStyle=none;html=1;fontSize=15;fontColor=#FF66B3;" parent="1" source="31" target="33" edge="1">
                    <mxGeometry relative="1" as="geometry"/>
                </mxCell>
                <mxCell id="31" value="parse_request_line()" style="whiteSpace=wrap;html=1;fontSize=15;rounded=1;" parent="1" vertex="1">
                    <mxGeometry x="99.5" y="470" width="170" height="60" as="geometry"/>
                </mxCell>
                <mxCell id="33" value="do_request()" style="whiteSpace=wrap;html=1;fontSize=15;rounded=1;" parent="1" vertex="1">
                    <mxGeometry x="310.5" y="470" width="120" height="60" as="geometry"/>
                </mxCell>
                <mxCell id="38" value="" style="edgeStyle=none;html=1;fontSize=15;fontColor=#FF66B3;" parent="1" source="35" target="37" edge="1">
                    <mxGeometry relative="1" as="geometry"/>
                </mxCell>
                <mxCell id="35" value="add_status_line()&lt;br&gt;add_header()&lt;br&gt;add_content()" style="whiteSpace=wrap;html=1;fontSize=15;rounded=1;" parent="1" vertex="1">
                    <mxGeometry x="105.5" y="610" width="150" height="60" as="geometry"/>
                </mxCell>
                <mxCell id="37" value="add_response()" style="whiteSpace=wrap;html=1;fontSize=15;rounded=1;" parent="1" vertex="1">
                    <mxGeometry x="305.5" y="610" width="120" height="60" as="geometry"/>
                </mxCell>
                <mxCell id="42" value="" style="edgeStyle=none;html=1;" edge="1" parent="1" source="39" target="41">
                    <mxGeometry relative="1" as="geometry"/>
                </mxCell>
                <mxCell id="53" style="edgeStyle=none;html=1;exitX=1;exitY=0.5;exitDx=0;exitDy=0;entryX=0;entryY=0.5;entryDx=0;entryDy=0;fontSize=22;" edge="1" parent="1" source="39" target="3">
                    <mxGeometry relative="1" as="geometry"/>
                </mxCell>
                <mxCell id="39" value="user[sockfd].read()" style="whiteSpace=wrap;html=1;fontSize=15;rounded=1;" vertex="1" parent="1">
                    <mxGeometry x="376.5" y="-50" width="195" height="60" as="geometry"/>
                </mxCell>
                <mxCell id="41" value="revc()" style="whiteSpace=wrap;html=1;fontSize=15;rounded=1;" vertex="1" parent="1">
                    <mxGeometry x="414" y="180" width="120" height="60" as="geometry"/>
                </mxCell>
                <mxCell id="44" style="edgeStyle=none;html=1;startArrow=none;" edge="1" parent="1" source="49" target="11">
                    <mxGeometry relative="1" as="geometry"/>
                </mxCell>
                <mxCell id="50" value="" style="edgeStyle=none;html=1;fontSize=14;" edge="1" parent="1" source="43" target="49">
                    <mxGeometry relative="1" as="geometry"/>
                </mxCell>
                <mxCell id="43" value="new threadpool()&lt;br style=&quot;font-size: 14px&quot;&gt;pthread_create()" style="rounded=1;whiteSpace=wrap;html=1;fontSize=14;" vertex="1" parent="1">
                    <mxGeometry x="245" y="270" width="170" height="60" as="geometry"/>
                </mxCell>
                <mxCell id="48" style="edgeStyle=none;html=1;entryX=0.5;entryY=0;entryDx=0;entryDy=0;" edge="1" parent="1" source="46" target="43">
                    <mxGeometry relative="1" as="geometry"/>
                </mxCell>
                <mxCell id="46" value="pool=new threadpool()" style="whiteSpace=wrap;html=1;fontSize=15;rounded=1;" vertex="1" parent="1">
                    <mxGeometry x="105.5" y="40" width="225" height="60" as="geometry"/>
                </mxCell>
                <mxCell id="49" value="worker()&lt;br&gt;run()" style="whiteSpace=wrap;html=1;fontSize=14;rounded=1;" vertex="1" parent="1">
                    <mxGeometry x="79.5" y="270" width="120" height="60" as="geometry"/>
                </mxCell>
                <mxCell id="51" value="" style="edgeStyle=none;html=1;endArrow=none;" edge="1" parent="1" source="43" target="49">
                    <mxGeometry relative="1" as="geometry">
                        <mxPoint x="147.5" y="312.0175438596493" as="sourcePoint"/>
                        <mxPoint x="-80" y="304.0350877192982" as="targetPoint"/>
                    </mxGeometry>
                </mxCell>
            </root>
        </mxGraphModel>
    </diagram>
</mxfile>